<?xml version="1.0" encoding="UTF-8"?>
<svg id="Capa_2" data-name="Capa 2" xmlns="http://www.w3.org/2000/svg" viewBox="0 0 217.93 191.42">
  <defs>
    <style>
      .cls-1 {
        fill: #fff;
      }
    </style>
  </defs>
  <g id="Capa_1-2" data-name="Capa 1">
    <g>
      <path class="cls-1" d="M217.93,122.25c-7.66,10.46-15.11,20.64-22.56,30.82-9.02,12.32-18.04,24.63-27.03,36.97-.72,.98-1.45,1.39-2.69,1.39-29.29-.04-58.57-.05-87.86-.03-8.91,0-16.93-2.4-23.77-8.28-.74-.64-1.56-1.19-2.31-1.82-2.25-1.91-4.79-2.88-7.79-2.7-1.83,.11-3.67,.02-5.68,.02v12.63H0V114.81H2.05c12.86,0,25.71-.03,38.57,.04,1.93,.01,3.53-.51,5.19-1.42,5.29-2.91,10.47-6.14,16.04-8.4,12.21-4.94,24.27-3.75,35.86,2.33,3.77,1.98,7.34,4.33,11.08,6.37,1.1,.6,2.44,.99,3.69,1.04,5.41,.21,10.9-.27,16.22,.45,12.39,1.68,20.87,8.74,25.67,20.26,.11,.27,.19,.54,.3,.81,.04,.1,.15,.17,.37,.43,.99-1.1,1.97-2.17,2.93-3.26,3.93-4.45,7.83-8.92,11.78-13.35,11.91-13.39,31.73-14,44.43-1.38,1.18,1.17,2.42,2.29,3.73,3.52ZM38.26,165.87c2.38,0,4.56,.02,6.74,0,4.03-.06,7.79,.95,11.17,3.09,2.14,1.35,4.18,2.87,6.13,4.48,4.43,3.66,9.49,5.21,15.19,5.2,27.22-.04,54.43-.03,81.65,.01,1.23,0,2-.38,2.72-1.36,12.6-17.27,25.23-34.51,37.84-51.77,.25-.35,.46-.73,.73-1.17-.48-.25-.82-.45-1.19-.6-7.08-2.83-14.77-1.02-19.85,4.71-6.91,7.81-13.82,15.63-20.68,23.48-.76,.87-1.54,1.18-2.67,1.18-19.61-.03-39.21-.02-58.82-.03-.61,0-1.21-.05-1.77-.08v-12.69h47.06c-.32-.77-.51-1.36-.79-1.9-3.51-6.86-9.17-10.53-16.83-10.82-5.41-.2-10.84,0-16.26-.09-1.03-.02-2.16-.35-3.05-.86-3.46-1.96-6.87-4-10.24-6.1-11.49-7.15-23.12-7.8-34.95-.89-3.78,2.21-7.59,4.36-11.36,6.6-1.53,.91-3.07,1.44-4.89,1.32-1.93-.13-3.88-.03-5.89-.03v38.3Zm-12.95,12.66v-50.87H12.74v50.87h12.57Z"/>
      <path class="cls-1" d="M102.41,101.92c0-3.95-.15-7.86,.05-11.75,.17-3.43,.38-6.93,1.19-10.25,3.73-15.27,16.66-26.59,32.23-28.54,.38-.05,.76-.17,1.18-.39-7.18-1.45-13.11-4.85-17.3-10.91-4.21-6.09-5.61-12.84-3.97-20.06C118.57,7.8,129.68-.62,141.96,.04c11.99,.64,22.21,10.02,24,21.44,1.77,11.28-4.84,26.41-22.15,29.58,1.75,.3,3.03,.51,4.31,.75,16.17,2.95,29.32,17.23,30.57,33.6,.41,5.43,.07,10.91,.07,16.53H102.41Zm12.75-12.71h51.1c-.47-9.15-4.13-16.48-11.87-21.31-9.16-5.72-18.62-5.65-27.68,.18-7.52,4.84-11.24,12.03-11.55,21.13Zm25.47-50.92c7.02,.02,12.79-5.69,12.82-12.69,.03-6.96-5.76-12.8-12.72-12.82-7.01-.02-12.78,5.71-12.8,12.71-.02,7.02,5.69,12.78,12.69,12.8Z"/>
    </g>
  </g>
</svg>