<?xml version="1.0" encoding="UTF-8"?>
<svg id="Capa_2" data-name="Capa 2" xmlns="http://www.w3.org/2000/svg" viewBox="0 0 377.77 40.62">
  <defs>
    <style>
      .cls-1 {
        fill: #e72e3e;
      }
    </style>
  </defs>
  <g id="Capa_1-2" data-name="Capa 1">
    <g>
      <path class="cls-1" d="M49.57,34.39l-8.76,5.06c-1.36,.79-2.71,1.15-4.29,1.15H13.75c-7.56,0-13.75-6.19-13.75-13.75S6.19,13.09,13.75,13.09H55.35v6.21H13.75c-4.14,0-7.55,3.41-7.55,7.55s3.41,7.55,7.55,7.55h30.86c1.57,0,2.92-.36,4.29-1.15l6.45-3.72v1.54l-5.78,3.34Z"/>
      <path class="cls-1" d="M66.87,40.6h-6.21V0h6.21V40.6Z"/>
      <path class="cls-1" d="M79.98,.02V6.22h-6.21V.02h6.21Zm0,13.09v27.51h-6.21V13.11h6.21Z"/>
      <path class="cls-1" d="M135.01,34.39l-8.76,5.06c-1.36,.79-2.71,1.15-4.29,1.15h-22.77c-7.56,0-13.75-6.19-13.75-13.75s6.19-13.75,13.75-13.75h41.6v5.48l-1.25,.72-3.48,2.01-8.76,5.06c-1.36,.79-2.71,1.15-4.29,1.15h-31.34c.34,3.83,3.6,6.88,7.52,6.88h30.86c1.58,0,2.92-.36,4.29-1.15l6.45-3.72v1.54l-5.78,3.34Zm-43.34-8.21h30.98c1.57,0,2.92-.36,4.29-1.15l4.26-2.46,5.68-3.28h-37.69c-3.92,0-7.18,3.05-7.52,6.88Z"/>
      <path class="cls-1" d="M162.89,19.3l8.76-5.06c1.36-.79,2.71-1.15,4.29-1.15h11.7c7.56,0,13.75,6.19,13.75,13.75v13.75h-6.21v-13.75c0-4.14-3.41-7.55-7.55-7.55h-19.79c-1.57,0-2.92,.36-4.29,1.15l-7.03,4.06c-2.73,1.57-4.29,4.28-4.29,7.43v8.67h-6.21V13.09h6.21v12.35l10.64-6.15Z"/>
      <path class="cls-1" d="M220.56,34.39h39.36v6.21h-39.36c-7.34,0-13.39-5.83-13.74-13.09V0h6.22V25.44l10.64-6.15,8.76-5.06c1.36-.79,2.71-1.15,4.29-1.15h23.18v6.21h-31.27c-1.57,0-2.92,.36-4.29,1.15l-7.03,4.06c-1.93,1.12-3.28,2.8-3.9,4.81,1.03,2.95,3.85,5.09,7.13,5.09Z"/>
      <path class="cls-1" d="M312.78,34.39l-8.76,5.06c-1.36,.79-2.71,1.15-4.29,1.15h-22.77c-7.57,0-13.75-6.19-13.75-13.75s6.19-13.75,13.75-13.75h41.6v5.48l-1.25,.72-3.48,2.01-8.76,5.06c-1.36,.79-2.71,1.15-4.29,1.15h-31.34c.34,3.83,3.6,6.88,7.52,6.88h30.86c1.58,0,2.92-.36,4.29-1.15l6.45-3.72v1.54l-5.78,3.34Zm-43.34-8.21h30.98c1.57,0,2.92-.36,4.29-1.15l4.26-2.46,5.68-3.28h-37.69c-3.92,0-7.18,3.05-7.52,6.88Z"/>
      <path class="cls-1" d="M371.99,34.39l-8.76,5.06c-1.36,.79-2.71,1.15-4.29,1.15h-36.52v-6.21h44.61c1.57,0,2.92-.36,4.29-1.15l.24-.14v-5.59h-49.13c0-.22-.02-.44-.02-.66,0-7.57,6.19-13.75,13.75-13.75h41.6v6.21h-41.6c-3.92,0-7.18,3.05-7.52,6.88h49.12v4.88l-5.78,3.34Z"/>
    </g>
  </g>
</svg>