<?xml version="1.0" encoding="UTF-8"?>
<svg id="Capa_2" data-name="Capa 2" xmlns="http://www.w3.org/2000/svg" viewBox="0 0 240.71 150.64">
  <defs>
    <style>
      .cls-1 {
        fill: #fff;
      }

      .cls-2 {
        fill: none;
        stroke: #fff;
        stroke-miterlimit: 10;
        stroke-width: 14px;
      }
    </style>
  </defs>
  <g id="Capa_1-2" data-name="Capa 1">
    <g>
      <rect class="cls-2" x="7" y="7" width="226.71" height="136.64"/>
      <g>
        <path class="cls-1" d="M44.22,116.05c0-3.14-.12-6.24,.04-9.33,.14-2.73,.3-5.5,.94-8.14,2.96-12.12,13.23-21.11,25.59-22.65,.3-.04,.6-.13,.94-.31-5.7-1.15-10.41-3.85-13.73-8.66-3.34-4.84-4.45-10.19-3.15-15.93,2.2-9.7,11.02-16.38,20.77-15.86,9.51,.51,17.63,7.95,19.05,17.02,1.41,8.95-3.84,20.97-17.58,23.48,1.39,.24,2.41,.41,3.42,.59,12.84,2.34,23.28,13.68,24.27,26.67,.33,4.31,.05,8.66,.05,13.12H44.22Zm10.12-10.09h40.57c-.37-7.27-3.28-13.08-9.42-16.92-7.27-4.54-14.78-4.49-21.97,.14-5.97,3.84-8.92,9.55-9.17,16.78Zm20.22-40.42c5.58,.02,10.16-4.52,10.18-10.07,.02-5.53-4.57-10.16-10.09-10.18-5.56-.02-10.15,4.53-10.16,10.09-.01,5.57,4.52,10.14,10.08,10.16Z"/>
        <g>
          <rect class="cls-1" x="120.36" y="39.94" width="81.78" height="16.59"/>
          <rect class="cls-1" x="120.41" y="72.2" width="81.66" height="11.68"/>
          <rect class="cls-1" x="121.74" y="99.55" width="79.02" height="11.7"/>
        </g>
      </g>
    </g>
  </g>
</svg>