<?xml version="1.0" encoding="UTF-8"?>
<svg id="Capa_2" data-name="Capa 2" xmlns="http://www.w3.org/2000/svg" viewBox="0 0 267.38 87.14">
  <defs>
    <style>
      .cls-1 {
        fill: #fff;
      }
    </style>
  </defs>
  <g id="Capa_1-2" data-name="Capa 1">
    <g>
      <g>
        <path class="cls-1" d="M87.91,49.36c-2.77,1.6-5.53,3.2-8.29,4.79-4.75,2.74-9.53,5.44-14.24,8.23-2.46,1.46-5.08,2.14-7.9,2.14-18.67,0-37.35,0-56.02,0-.41,0-.82-.05-1.32-.09v-9.79c.61-.02,1.2-.06,1.78-.06,22.94,0,45.88,0,68.83,0,1.66,0,3.28-.15,4.83-.78,.86-.35,1.68-.79,2.44-1.16,0-2.78,.26-5.43-.05-8.01-.65-5.29-5.17-10.4-12.72-10.38-14.22,.04-28.43,0-42.65,.02-.79,0-1.59,.09-2.38,.12-2.16,.08-4.12,.81-5.97,1.88-3.57,2.07-7.14,4.12-10.72,6.18-.44,.26-.9,.49-1.51,.83-.2-.52-.4-.97-.54-1.44-3.85-12.53-.04-26.07,10.41-34.6C17.83,2.43,24.7,.02,32.4,.02c17.83,0,35.66,0,53.49,0h1.94V9.73c-.62,.03-1.25,.09-1.89,.09-17.83,0-35.66,0-53.49,0-10.67,0-19.8,7.33-22.12,17.73-.55,2.45-.54,4.93-.35,7.41,.03,.35,.18,.7,.3,1.15,.56-.3,1.02-.53,1.46-.78,5.04-2.9,10.09-5.78,15.09-8.73,2.46-1.45,5.08-2.11,7.91-2.11,10.37,0,20.74-.01,31.11,0,10.55,.02,19.34,7.05,21.62,17.27,.2,.91,.38,1.84,.42,2.77,.07,1.59,.02,3.18,.02,4.82Z"/>
        <path class="cls-1" d="M175.69,27.31v9.71c-.58,.03-1.17,.09-1.76,.09-16.8,0-33.6,.02-50.4,0-3.13,0-6.01,.67-8.7,2.33-2.43,1.5-4.97,2.83-7.41,4.32-2.76,1.69-2.82,4.94-.18,6.85,.11,.08,.23,.16,.35,.24,3.74,2.45,7.81,3.78,12.32,3.77,12.86-.03,25.71-.03,38.57,0,2.66,0,5.08-.64,7.36-1.98,2.83-1.66,5.68-3.29,8.53-4.92,.4-.23,.81-.43,1.32-.7v2.33c-.72,.43-1.51,.91-2.31,1.37-6.74,3.89-13.5,7.74-20.21,11.68-2.47,1.45-5.08,2.13-7.9,2.14-8.31,.02-16.61,.05-24.92,0-16.29-.11-27.82-11.01-31.34-23.48-5.15-18.24,6.35-36.77,24.93-40.44,2.01-.4,4.1-.56,6.15-.56,17.88-.04,35.76-.02,53.63-.02h1.93V9.73c-.57,.03-1.16,.08-1.75,.08-17.83,0-35.66,0-53.49,0-11.34,0-20.75,7.94-22.53,19.09-.86,5.39,.28,10.43,3.13,15.08,.12,.2,.28,.37,.5,.66,.49-.27,.98-.51,1.45-.79,8.45-4.87,16.9-9.73,25.34-14.62,2.3-1.33,4.75-1.95,7.38-1.95,12.81,0,25.62,0,38.43,0h1.58Z"/>
        <path class="cls-1" d="M267.36,64.44h-9.81c0-.59,0-1.09,0-1.59,0-4.41-.17-8.82,.04-13.22,.27-5.76-4.29-12.45-12.26-12.5-10.37-.07-20.74-.03-31.11,0-2.57,0-4.98,.69-7.22,2.03-3.18,1.89-6.34,3.86-9.64,5.52-5.69,2.87-8.05,7.56-8.05,13.71,0,1.45,0,2.91,0,4.36,0,.51,0,1.03,0,1.67h-9.77V.13h9.71V27.41c.74-.41,1.23-.66,1.7-.93,14.05-8.1,28.11-16.19,42.15-24.32C235.6,.71,238.22-.02,241.12,0c8.12,.04,16.24,.02,24.35,.02h1.77V9.82c-.67,0-1.26,0-1.85,0-12.39,0-24.78,.01-37.16,0-2.79,0-5.35,.66-7.77,2.07-7.82,4.55-15.67,9.05-23.5,13.58-.89,.52-1.77,1.06-2.6,1.67-2.37,1.74-3.83,4.09-4.47,6.94-.94,4.16-.44,8.39-.64,12.84,.62-.33,1.02-.54,1.41-.76,9.5-5.48,19.03-10.92,28.5-16.46,2.8-1.64,5.72-2.45,8.96-2.41,5.68,.07,11.36,.02,17.03,.02,5.19,0,9.92,1.46,13.96,4.75,5.28,4.29,8.17,9.81,8.25,16.68,.05,4.69,0,9.38,0,14.07v1.64Z"/>
      </g>
      <path class="cls-1" d="M247.31,80.2c1.45-.82,2.55-1.55,3.74-2.09,.83-.38,1.76-.67,2.66-.71,2.15-.1,4.31-.04,6.47-.03,3.8,.01,5.9,2.13,5.92,6.13-1.98,1.11-4.05,2.28-6.13,3.41-.27,.15-.63,.19-.95,.19-4.55,0-9.09,0-13.64,0-.13,0-.26-.07-.47-.13v-2.33c.57,0,1.07,0,1.57,0,4.97,0,9.94,.01,14.91-.01,.72,0,1.44-.18,2.27-.29,0-.65,.03-1.11,0-1.57-.12-1.69-1.19-2.82-2.89-2.85-3.56-.05-7.13-.04-10.69,0-.62,0-1.28,.28-1.85,.55-.92,.45-1.79,1-2.8,1.58-1.03-2.65-.62-5.02,.89-7.22,1.51-2.21,3.73-3.29,6.34-3.34,4.26-.08,8.53-.02,12.8-.01,.18,0,.36,.07,.62,.12v2.31c-.54,.02-1.04,.07-1.54,.07-3.84,0-7.69-.02-11.53,.01-2.96,.03-5.04,1.76-5.57,4.56-.08,.44-.06,.91-.1,1.65Z"/>
      <path class="cls-1" d="M242.99,78.13v2.38c-.57,.03-1.07,.07-1.58,.07-3.24,0-6.47,0-9.71,0-2.69,0-3.16,.16-5.43,1.86-.03,.12-.09,.25-.09,.39,0,.18,.04,.37,.06,.54,.97,.88,2.11,1.25,3.37,1.25,3,0,6,.05,9-.03,.76-.02,1.53-.35,2.24-.65,.7-.29,1.33-.73,2-1.1,.08,.12,.16,.23,.24,.35-.24,.21-.45,.48-.73,.64-1.57,.93-3.14,1.88-4.76,2.72-.64,.33-1.41,.51-2.13,.53-2.01,.07-4.03,.04-6.05,.02-4-.04-7.33-3.17-7.65-7.19-.32-4.04,2.58-7.68,6.61-8.27,.74-.11,1.49-.17,2.24-.17,3.56-.02,7.13,0,10.69,0h1.63v2.44c-.49,.03-.98,.08-1.48,.08-3.85,0-7.69-.02-11.54,.01-3.01,.02-5.17,1.81-5.63,4.66-.2,1.24,.08,2.4,.91,3.51,1.94-1.11,3.86-2.17,5.74-3.3,.88-.53,1.76-.76,2.79-.75,3.04,.04,6.08,.02,9.25,.02Z"/>
      <path class="cls-1" d="M97.46,87.06h-2.26v-15.5h2.26v4.63c1.12-.63,2.01-1.12,2.89-1.62,1.3-.74,2.66-1.4,3.88-2.27,2.53-1.8,6.29-.28,7.35,2.46,.15,.39,.27,.79,.46,1.33,.65-.36,1.3-.69,1.93-1.05,1.54-.88,3.19-1.63,4.6-2.69,2.65-2,7.4-.22,7.7,3.54,.29,3.66,.06,7.37,.06,11.14h-2.28c-.02-.42-.06-.87-.06-1.32,0-2.67,0-5.34,0-8.01,0-2.62-1.07-3.53-3.63-3.75-2.62-.22-4.74,.74-6.81,2.09-1.19,.78-1.58,1.92-1.58,3.25-.01,2.11,0,4.22,0,6.32,0,.45-.05,.91-.08,1.43h-2.21c-.03-.47-.09-.96-.09-1.45,0-2.62,0-5.25,0-7.87-.01-2.71-1.06-3.56-3.75-3.78-2.64-.22-4.73,.81-6.79,2.17-1.14,.75-1.48,1.88-1.49,3.15,0,2.11,0,4.22,0,6.32,0,.46-.04,.91-.06,1.48Z"/>
      <path class="cls-1" d="M4.37,83.11v3.92H2.03c-.05-.34-.15-.69-.15-1.04-.01-2.91-.04-5.81,0-8.72,.05-3.53,2.18-5.74,5.69-5.79,4.88-.07,9.75-.02,14.63-.01,.27,0,.54,.07,.88,.12v15.41h-2.34v-9.44c-.56,.27-.93,.42-1.27,.62-2.35,1.35-4.72,2.7-7.05,4.09-1,.6-2.05,.87-3.21,.85-1.54-.02-3.08,0-4.85,0Zm16.23-9.05c-.44-.03-.85-.08-1.26-.08-3.85,0-7.69-.01-11.54,0-1.69,0-2.78,.6-3.16,1.84-.47,1.54-.23,3.11-.19,4.76,3.07,0,5.92,.03,8.78-.02,.58-.01,1.2-.26,1.72-.54,1.36-.73,2.69-1.53,4.02-2.31,1.37-.8,1.9-1.99,1.62-3.65Z"/>
      <path class="cls-1" d="M81.31,87.11c-1.26,0-2.53,0-3.79,0-4.19-.03-7.62-3.28-7.76-7.5-.15-4.49,3.27-7.76,6.78-7.96,3.26-.18,6.56-.24,9.81,.04,4.04,.35,6.89,4.09,6.64,8.19-.24,3.94-3.64,7.18-7.61,7.23-1.36,.02-2.72,0-4.08,0Zm.03-2.48c1.22,0,2.43,.01,3.65,0,3.09-.04,5.46-2.28,5.52-5.19,.06-2.92-2.2-5.31-5.29-5.42-2.52-.09-5.05-.08-7.58,0-3.09,.09-5.38,2.42-5.37,5.35,0,2.97,2.4,5.25,5.57,5.28,1.17,.01,2.34,0,3.51,0Z"/>
      <path class="cls-1" d="M139.87,87.11c-1.26,0-2.53,0-3.79,0-4.18-.03-7.46-3.22-7.76-7.53-.26-3.76,2.77-7.58,6.69-7.9,3.34-.27,6.74-.27,10.08,.02,3.92,.34,6.73,4.14,6.46,8.19-.25,3.9-3.58,7.13-7.47,7.21-1.4,.03-2.81,0-4.22,0Zm.13-2.48c1.17,0,2.34-.04,3.51,0,2.96,.14,5.5-2.32,5.56-5.15,.07-3-2.21-5.39-5.36-5.49-2.52-.08-5.06-.08-7.58,0-3.05,.1-5.38,2.55-5.31,5.42,.08,2.9,2.47,5.16,5.53,5.2,1.22,.02,2.43,0,3.65,0Z"/>
      <path class="cls-1" d="M185.11,87.11c-1.31,0-2.62,.01-3.93,0-4.08-.04-7.43-3.21-7.68-7.27-.25-4.12,2.59-7.83,6.65-8.16,3.29-.27,6.65-.26,9.94,.02,4.12,.35,6.84,4.11,6.54,8.51-.25,3.65-3.68,6.84-7.45,6.9-1.36,.02-2.72,0-4.07,0Zm-.08-2.48c1.22,0,2.44,.01,3.66,0,3.12-.04,5.44-2.26,5.48-5.23,.04-2.94-2.23-5.28-5.33-5.4-1.78-.07-3.57-.03-5.35-.01-1.03,.01-2.07-.03-3.08,.14-2.87,.48-4.61,2.82-4.39,5.75,.2,2.61,2.45,4.68,5.21,4.75,1.27,.03,2.53,0,3.8,0Z"/>
      <path class="cls-1" d="M198.97,71.54c.31-.03,.54-.07,.77-.07,4.88,0,9.75-.02,14.63,0,3.95,.02,6.28,3.16,5.5,6.77-.75,.48-1.61,1.02-2.65,1.68,3.19,1.51,2.92,4.25,2.73,7.08h-2.38c0-.8,.02-1.58,0-2.36-.05-1.79-.79-2.55-2.6-2.56-2.39-.02-4.78-.07-7.17,.03-.85,.03-1.7,.4-2.53,.68-.43,.15-.81,.47-1.22,.68-1.47,.75-2.78,1.62-2.74,3.57h-2.2c-.32-.96-.43-13.39-.12-15.5Zm2.46,12.58c.5-.25,.87-.41,1.23-.61,1.59-.91,3.19-1.78,4.74-2.75,1.32-.83,2.68-1.26,4.25-1.15,1.12,.08,2.25,.05,3.37-.03,1.37-.1,2.36-1.14,2.47-2.44,.13-1.43-.64-2.6-2.02-2.98-.49-.13-1.02-.16-1.53-.16-3.71-.01-7.41,0-11.12,0-.45,0-.91,.04-1.4,.06v10.07Z"/>
      <path class="cls-1" d="M44.62,71.55h2.44v15.45h-2.36v-4.48c-.79,.42-1.37,.7-1.92,1.01-1.71,.98-3.38,2.02-5.12,2.92-.72,.37-1.58,.57-2.39,.63-1.35,.1-2.72,.04-4.08,.02-2.74-.03-4.95-1.83-5.19-4.54-.22-2.51-.14-5.05-.18-7.57-.02-1.11,0-2.22,0-3.43h2.52c0,.55,0,1.05,0,1.55,0,2.62,.05,5.25-.02,7.87-.06,2.38,1.25,3.81,3.68,3.67,2.06-.12,4.12-.05,6.18-.01,.98,.02,1.84-.21,2.66-.73,.63-.4,1.29-.76,1.94-1.13,1.26-.71,1.87-1.74,1.85-3.21-.04-2.15-.01-4.31-.01-6.46,0-.46,0-.93,0-1.56Z"/>
      <path class="cls-1" d="M69.83,71.59v2.39h-8.98v13.01h-2.45v-12.97c-2.25,0-4.35-.05-6.44,.03-.61,.03-1.22,.44-1.8,.72-.45,.21-.88,.48-1.52,.53,.15-.22,.26-.52,.47-.64,1.61-.96,3.21-1.92,4.87-2.79,.51-.27,1.17-.39,1.76-.4,4.45-.03,8.9-.02,13.35-.01,.22,0,.45,.07,.76,.12Z"/>
      <path class="cls-1" d="M173.5,71.57v2.39h-8.92v13.04h-2.52v-12.97c-3.33,.12-6.64-.85-9.52,1.55-.06-.1-.12-.2-.18-.29,.16-.22,.26-.52,.47-.65,1.53-.91,3.05-1.84,4.62-2.66,.6-.31,1.34-.49,2.02-.49,4.45-.04,8.91-.02,13.36-.01,.18,0,.36,.05,.66,.1Z"/>
    </g>
  </g>
</svg>