<?xml version="1.0" encoding="UTF-8"?>
<svg id="Capa_2" data-name="Capa 2" xmlns="http://www.w3.org/2000/svg" viewBox="0 0 211.13 200">
  <defs>
    <style>
      .cls-1 {
        fill: #fff;
      }
    </style>
  </defs>
  <g id="Capa_1-2" data-name="Capa 1">
    <g>
      <g>
        <path class="cls-1" d="M135.3,125.8c-6.18-3.59-12.33-7.18-18.48-10.75-4.79-2.77-9.58-5.52-14.37-8.29-7.94-4.59-15.88-9.18-23.81-13.78-1.86-1.08-3.69-2.22-5.58-3.24-.81-.44-1.01-.99-1.01-1.84,.03-4.78,0-9.56,0-14.34,0-14.54,0-29.08,0-43.63,0-.41,0-.81,0-1.22,3.23-1.85,6.38-3.65,9.52-5.46,6.44-3.7,12.88-7.41,19.32-11.11,5.24-3.01,10.49-6,15.73-9,1.56-.89,3.17-1.7,4.64-2.72,.95-.66,1.67-.46,2.51,.04,2.47,1.45,4.96,2.88,7.45,4.31,4.43,2.57,8.86,5.14,13.29,7.71,6.43,3.72,12.86,7.43,19.29,11.14,4.26,2.46,8.53,4.9,12.79,7.35,2.75,1.58,5.5,3.18,8.27,4.74,.6,.34,.96,.73,.87,1.46-.03,.25,0,.51,0,.77,0,19.01,0,38.03,0,57.04v1.61c-16.82,9.74-33.61,19.47-50.42,29.21ZM81.17,39.13v1.93c0,9.92,0,19.84,0,29.76,0,3.96,.02,7.91,0,11.87,0,.76,.09,1.31,.88,1.76,5.39,3.06,10.74,6.19,16.1,9.3,5.68,3.28,11.36,6.56,17.03,9.84,4.7,2.72,9.4,5.44,14.1,8.16,.25,.15,.54,.22,.95,.38v-44.73c-16.24-9.36-32.53-18.73-49.07-28.26Zm68.94,22.86c-1,.5-1.73,.85-2.45,1.24-2.16,1.17-4.29,2.42-6.48,3.53-1.17,.6-1.7,1.3-1.69,2.72,.06,13.82,.04,27.64,.04,41.46,0,.5,0,1,0,1.66,.5-.2,.84-.3,1.14-.47,3.99-2.3,7.98-4.6,11.97-6.91,7.53-4.37,15.04-8.78,22.6-13.09,1.02-.58,1.31-1.21,1.31-2.3-.03-13.51-.02-27.02-.02-40.54,0-.54-.06-1.08-.1-1.81-.57,.27-.93,.43-1.28,.62-2.11,1.16-4.19,2.38-6.34,3.46-.96,.48-1.33,1.04-1.32,2.13,.06,4.57,.03,9.14,.03,13.72,0,.45,0,.9,0,1.35-5.84,3.13-11.44,6.4-17.42,9.48v-16.23ZM85.99,31.29c16.62,9.59,32.9,18.98,49.2,28.38,3.23-1.79,6.4-3.55,9.8-5.44-16.36-9.72-32.51-19.31-48.67-28.91-3.42,1.97-6.73,3.88-10.32,5.96Zm27.16-15.6c.64,.45,1,.73,1.39,.96,7.38,4.32,14.76,8.62,22.14,12.94,8.21,4.81,16.42,9.63,24.6,14.5,.85,.51,1.47,.47,2.25,.01,1.68-.98,3.39-1.91,5.09-2.86,1.19-.67,2.39-1.34,3.76-2.11-16.76-9.68-33.34-19.24-49.91-28.81-3.09,1.78-6.1,3.52-9.32,5.37Z"/>
        <path class="cls-1" d="M153.62,86.31v8.88c-.46,.24-.97,.51-1.68,.88,0-2.89-.02-5.55,0-8.21,0-.78,.06-.78,1.67-1.54Z"/>
        <path class="cls-1" d="M162.22,81.23c.44-.24,.92-.5,1.63-.89,0,1.27,0,2.37,0,3.46,0,1.38-.07,2.77,.02,4.14,.08,1.2-.44,1.8-1.65,2.06v-8.78Z"/>
        <path class="cls-1" d="M157.96,83.9c0,2.56-.06,5.02,.02,7.47,.04,1.2-.46,1.79-1.75,2.07,0-.59,0-1.13,0-1.67,0-1.84,.09-3.69-.03-5.53-.09-1.3,.32-2.05,1.76-2.35Z"/>
        <path class="cls-1" d="M150.58,88.19v5.99c0,.36-.04,.72,0,1.07,.17,1.21-.17,2.11-1.59,2.47-.05-.29-.14-.61-.14-.92-.01-2.15-.01-4.3,0-6.45q0-1.53,1.73-2.16Z"/>
        <path class="cls-1" d="M166.67,87.46c0-2.75,.02-5.4-.01-8.05-.01-.92,.65-1.14,1.4-1.59,.06,.52,.15,.89,.15,1.27,.01,2.09-.06,4.19,.03,6.28,.05,1.1-.34,1.74-1.57,2.1Z"/>
        <path class="cls-1" d="M159.37,82.94c.42-.26,.8-.5,1.34-.83,.04,.64,.1,1.08,.1,1.52,0,2,0,4.01,0,6.01,0,1.35-.01,1.35-1.44,2.13v-8.83Z"/>
      </g>
      <path class="cls-1" d="M211.13,132.98c-7.42,10.13-14.63,19.99-21.85,29.86-8.74,11.93-17.48,23.86-26.19,35.82-.69,.95-1.4,1.35-2.61,1.35-28.37-.04-56.75-.05-85.12-.03-8.63,0-16.4-2.33-23.03-8.02-.72-.62-1.51-1.15-2.23-1.76-2.18-1.85-4.64-2.79-7.54-2.62-1.77,.11-3.55,.02-5.5,.02v12.24H0V125.78H1.99c12.46,0,24.91-.03,37.37,.04,1.87,.01,3.42-.49,5.03-1.38,5.12-2.82,10.14-5.95,15.54-8.14,11.83-4.79,23.52-3.64,34.74,2.26,3.65,1.92,7.11,4.19,10.73,6.17,1.06,.58,2.37,.96,3.58,1.01,5.24,.2,10.56-.26,15.72,.44,12.01,1.63,20.22,8.47,24.87,19.62,.11,.26,.18,.53,.3,.78,.04,.1,.14,.17,.36,.42,.96-1.06,1.91-2.1,2.84-3.16,3.81-4.31,7.59-8.64,11.41-12.93,11.54-12.98,30.74-13.56,43.05-1.34,1.14,1.14,2.35,2.22,3.61,3.41ZM37.07,175.24c2.3,0,4.42,.02,6.53,0,3.9-.05,7.54,.92,10.82,2.99,2.07,1.31,4.05,2.78,5.94,4.34,4.29,3.54,9.2,5.05,14.72,5.04,26.37-.04,52.74-.02,79.1,0,1.19,0,1.94-.37,2.63-1.32,12.2-16.73,24.44-33.44,36.66-50.15,.25-.34,.44-.71,.71-1.13-.47-.24-.8-.44-1.15-.58-6.86-2.74-14.31-.99-19.23,4.56-6.7,7.57-13.39,15.14-20.04,22.75-.73,.84-1.49,1.14-2.59,1.14-18.99-.03-37.99-.02-56.98-.02-.59,0-1.18-.05-1.72-.08v-12.29h45.6c-.31-.74-.49-1.31-.76-1.84-3.4-6.65-8.88-10.2-16.31-10.48-5.24-.2-10.5,0-15.75-.08-1-.02-2.09-.34-2.96-.83-3.35-1.9-6.66-3.87-9.92-5.91-11.13-6.92-22.39-7.56-33.86-.86-3.66,2.14-7.36,4.22-11,6.39-1.48,.88-2.97,1.39-4.74,1.28-1.87-.12-3.76-.03-5.7-.03v37.11Zm-12.54,12.26v-49.28H12.34v49.28h12.18Z"/>
    </g>
  </g>
</svg>