<?xml version="1.0" encoding="UTF-8"?>
<svg id="Capa_2" data-name="Capa 2" xmlns="http://www.w3.org/2000/svg" viewBox="0 0 441.92 40.6">
  <defs>
    <style>
      .cls-1 {
        fill: #e72e3e;
      }
    </style>
  </defs>
  <g id="Capa_1-2" data-name="Capa 1">
    <g>
      <path class="cls-1" d="M6.21,26.34v.03c.01,3.14,1.57,5.83,4.29,7.4l.37,.22c.48,.28,.96,.4,1.51,.4h30.6c.55,0,1.03-.13,1.51-.4l.38-.22c2.72-1.57,4.28-4.26,4.29-7.4V13.09h6.21v14.41c0,1.11-.55,2.06-1.51,2.62l-4.7,2.71-.15,.09-2.56,1.48-6.77,3.91-1.17,.67-2.11,1.22c-.48,.28-.96,.4-1.51,.4h-14.41c-.55,0-1.03-.13-1.51-.4l-2.11-1.22-7.94-4.58-2.56-1.48-.15-.09-4.7-2.71c-.96-.55-1.51-1.5-1.51-2.62V13.09H6.21v13.25Z"/>
      <path class="cls-1" d="M109.26,34.39l-8.76,5.06c-1.36,.79-2.71,1.15-4.29,1.15h-22.77c-7.57,0-13.75-6.19-13.75-13.75s6.19-13.75,13.75-13.75h41.6v5.48l-1.25,.72-3.48,2.01-8.76,5.06c-1.36,.79-2.71,1.15-4.29,1.15h-31.34c.34,3.83,3.6,6.88,7.52,6.88h30.86c1.57,0,2.92-.36,4.29-1.15l6.45-3.72v1.54l-5.78,3.34Zm-43.34-8.21h30.98c1.57,0,2.92-.36,4.29-1.15l4.26-2.46,5.68-3.28h-37.69c-3.92,0-7.18,3.05-7.52,6.88Z"/>
      <path class="cls-1" d="M137.14,19.3l8.76-5.06c1.36-.79,2.71-1.15,4.29-1.15h11.7c7.56,0,13.75,6.19,13.75,13.75v13.75h-6.21v-13.75c0-4.14-3.41-7.55-7.55-7.55h-19.79c-1.57,0-2.92,.36-4.29,1.15l-7.03,4.06c-2.73,1.57-4.29,4.28-4.29,7.43v8.67h-6.21V0h6.21V25.44l10.64-6.15Z"/>
      <path class="cls-1" d="M182.41,10.4h-7.54l3.77-2.97,6.19-4.88h10.06l-12.48,7.86Zm-.63,2.66h6.21v27.51h-6.21V13.06Z"/>
      <path class="cls-1" d="M242.6,34.39l-8.76,5.06c-1.36,.79-2.71,1.15-4.29,1.15h-22.77c-7.56,0-13.75-6.19-13.75-13.75s6.19-13.75,13.75-13.75h41.6v6.21h-41.6c-4.14,0-7.55,3.41-7.55,7.55s3.41,7.55,7.55,7.55h30.86c1.57,0,2.92-.36,4.29-1.15l6.45-3.72v1.54l-5.78,3.34Z"/>
      <path class="cls-1" d="M291.44,34.39l-8.76,5.06c-1.36,.79-2.71,1.15-4.29,1.15h-11.7c-7.57,0-13.75-6.19-13.75-13.75V13.09h6.21v13.75c0,4.14,3.41,7.55,7.55,7.55h19.79c1.58,0,2.92-.36,4.29-1.15l7.03-4.06c2.73-1.57,4.29-4.28,4.29-7.43V13.09h6.21v27.51h-6.21v-12.35l-10.64,6.15Z"/>
      <path class="cls-1" d="M321.38,40.6h-6.21V0h6.21V40.6Z"/>
      <path class="cls-1" d="M368.43,13.09c7.57,0,13.76,6.19,13.76,13.75s-6.19,13.75-13.76,13.75h-27.84c-7.57,0-13.75-6.19-13.75-13.75s6.19-13.75,13.75-13.75h27.84Zm0,21.3c4.14,0,7.55-3.41,7.55-7.55s-3.41-7.55-7.55-7.55h-27.84c-4.14,0-7.55,3.41-7.55,7.55s3.41,7.55,7.55,7.55h27.84Z"/>
      <path class="cls-1" d="M436.14,34.39l-8.76,5.06c-1.36,.79-2.71,1.15-4.29,1.15h-36.52v-6.21h44.61c1.57,0,2.92-.36,4.29-1.15l.24-.14v-5.59h-49.13c-.01-.22-.02-.44-.02-.67,0-7.57,6.19-13.75,13.75-13.75h41.6v6.21h-41.6c-3.92,0-7.18,3.05-7.52,6.88h49.12v4.88l-5.78,3.34Z"/>
    </g>
  </g>
</svg>