<?xml version="1.0" encoding="UTF-8"?>
<svg id="Capa_2" data-name="Capa 2" xmlns="http://www.w3.org/2000/svg" viewBox="0 0 268.43 200">
  <defs>
    <style>
      .cls-1 {
        fill: #fff;
      }
    </style>
  </defs>
  <g id="Capa_1-2" data-name="Capa 1">
    <g>
      <path class="cls-1" d="M0,120.47c.46-1.67,.87-3.36,1.39-5.01,2.01-6.3,5.87-11.19,11.22-15.05,1.24-.89,2.38-2.3,2.91-3.72,7.12-19.21,14.17-38.45,21.07-57.74,.85-2.37,1.95-2.91,4.29-2.9,20.87,.09,41.75,.03,62.62,.1,1.94,0,2.86-.47,3.55-2.41,3.69-10.44,7.61-20.8,11.31-31.23C119.01,.64,119.85,0,121.86,0,157.84,.06,193.82,.06,229.81,0c1.92,0,2.72,.64,3.35,2.38,6.79,18.77,13.63,37.53,20.56,56.25,.5,1.35,1.57,2.68,2.73,3.56,7.63,5.85,11.75,13.49,11.9,23.11,.13,8.56,.13,17.12,0,25.68-.11,7.47-3.45,13.3-9.92,17.03-1.95,1.12-2.41,2.31-2.35,4.32,.24,8.19-2.55,15.14-9.18,20.13-7.3,5.49-15.41,6.48-23.72,2.7-8.29-3.77-12.85-10.45-13.63-19.59-.13-1.47-.17-2.94-.26-4.55h-16.14c0,.97,0,1.89,0,2.81,0,5.94,.02,11.88,0,17.82-.05,8.47-3.81,14.73-11.37,18.55-1.45,.73-1.51,1.67-1.46,2.91,.21,5.15-.57,10.09-3.16,14.64-5.25,9.21-16,14-26.14,11.64-10.65-2.48-18.29-11.55-18.82-22.39-.07-1.47,0-2.94,0-4.57H60.89c0,1.58,.06,3.12,0,4.66-.56,12.69-10.99,22.73-23.77,22.89-12.61,.17-23.54-9.87-24.01-22.54-.15-4.17-.67-7.12-4.9-9.32C3.43,165.67,1.49,160.61,0,155.59,0,143.88,0,132.18,0,120.47Zm160.12-25.03c-.05-.41-.03-.67-.11-.89-5-13.76-10.04-27.51-14.99-41.29-.58-1.62-1.67-1.45-2.87-1.45-30.38,0-60.77,.02-91.15-.05-1.83,0-2.57,.61-3.16,2.24-4.69,13.04-9.48,26.04-14.23,39.06-.26,.7-.41,1.44-.67,2.36h127.18Zm-33.53,31.4c0,1.2,0,2.15,0,3.1,0,8.03,.05,16.07-.04,24.1-.02,1.92,.5,2.55,2.5,2.54,14.32-.08,28.65-.03,42.97-.05,3.91,0,5.36-1.45,5.37-5.41,.03-8.73,.07-17.47,0-26.2-.07-8.36-5.3-13.58-13.63-13.58-44.8-.02-89.61-.02-134.41,0-8.3,0-13.59,5.35-13.61,13.61-.02,8.56,0,17.12,0,25.68,0,4.59,1.33,5.91,5.93,5.91,14.06,0,28.12,0,42.18,0,.84,0,1.69-.08,2.76-.13v-29.56h59.99ZM236.03,56.95c-.17-.82-.2-1.25-.34-1.64-4.6-12.61-9.26-25.2-13.78-37.83-.6-1.67-1.6-1.73-2.98-1.73-15.28,.02-30.56,.01-45.84,.01-13.44,0-26.89-.02-40.33,.05-.95,0-2.5,.45-2.75,1.09-2.45,6.22-4.69,12.52-7.13,19.19h3.17c9.08,0,18.16,.05,27.24-.04,1.69-.02,2.42,.54,2.96,2.11,1.87,5.44,3.99,10.79,5.82,16.24,.66,1.97,1.59,2.61,3.71,2.6,22.44-.09,44.87-.06,67.31-.06h2.95Zm-66.96,15.72c.12,.65,.13,1.08,.27,1.46,2.9,7.94,5.78,15.89,8.76,23.81,.3,.81,1.05,1.58,1.79,2.08,5,3.34,8.82,7.66,11.02,13.29,.58,1.5,1.4,1.88,2.92,1.88,17.82-.05,35.63-.02,53.45-.04,3.87,0,5.36-1.56,5.37-5.44,.02-7.6,.01-15.2,0-22.79,0-9.14-5.11-14.24-14.28-14.24-22.18,0-44.37,0-66.55,0h-2.74Zm-86.7,83.72h28.27v-13.74h-28.27v13.74Zm65.65,16.03c-.58,4.37,.02,8.13,3.94,10.63,2.77,1.76,6.4,1.56,9.09-.4,3.06-2.22,4.19-5.92,3.12-10.23h-16.16Zm-119.23-.02c-.58,4.65,.05,8.58,4.32,10.87,3.03,1.62,6.09,1.32,8.84-.77,3.44-2.61,3.64-6.21,3.05-10.1H28.79Zm196.66-41.36c-.78,4.54,.35,7.66,3.43,9.43,2.84,1.64,5.67,1.49,8.34-.38,2.74-1.92,3.75-5.39,2.74-9.05h-14.51Z"/>
      <path class="cls-1" d="M28.72,126.81h26.28v15.48H28.72v-15.48Z"/>
      <path class="cls-1" d="M139.5,142.31v-15.45h26.41v15.45h-26.41Z"/>
      <path class="cls-1" d="M242.04,102.21h-25.27v-15.39h25.27v15.39Z"/>
    </g>
  </g>
</svg>