<?xml version="1.0" encoding="UTF-8"?>
<svg id="Capa_2" data-name="Capa 2" xmlns="http://www.w3.org/2000/svg" viewBox="0 0 166.23 200">
  <defs>
    <style>
      .cls-1 {
        fill: #fff;
      }
    </style>
  </defs>
  <g id="Capa_1-2" data-name="Capa 1">
    <g>
      <path class="cls-1" d="M33.49,150.14c-.36-25.13,19.58-49.86,49.94-49.75,30.2,.1,49.82,24.74,49.68,50.09-.14,25.16-19.75,49.47-49.79,49.53-29.91,.06-50.2-24.29-49.83-49.86Zm10.9-.12c-.76,17.87,13.97,39.06,38.81,39.13,23.85,.06,38.82-19.92,39.06-38.56,.24-18.44-14.35-39.22-38.71-39.35-24.86-.14-39.7,20.83-39.16,38.78Z"/>
      <path class="cls-1" d="M141.01,16.68h-8.27c5.98-5.92,11.6-11.48,16.86-16.68,5.4,5.44,10.98,11.05,16.64,16.74h-7.77V172.81h-17.45c0-52.05,0-103.88,0-156.13Z"/>
      <path class="cls-1" d="M74.33,39.68c-3.06-.15-5.38-.26-7.93-.38,5.85-5.64,11.44-11.03,16.74-16.14,5.17,5.18,10.74,10.76,16.15,16.18-1.71,.08-4.03,.2-6.56,.32-1.19,3.53-.46,7.13-.58,10.66-.13,3.61-.03,7.22-.03,10.83,0,3.46,0,6.92,0,10.38,0,3.61,0,7.22,0,10.83,0,3.59,0,7.18,0,10.91h-17.7c-.03-5.73-.07-11.69-.09-17.64-.02-5.87,0-11.73,0-17.6,0-5.99,0-11.97,0-18.34Z"/>
      <path class="cls-1" d="M25.52,172.82H8.08v-55.53H0c5.82-5.82,11.33-11.32,16.57-16.56,5.29,5.27,10.77,10.73,16.34,16.27-2.02,.11-4.32,.23-7.05,.37-.73,3.69-.24,7.43-.33,11.12-.09,3.61-.02,7.23-.02,10.84s0,7.53,0,11.29c0,3.61,0,7.23,0,10.84,0,3.72,0,7.45,0,11.36Z"/>
      <path class="cls-1" d="M125.13,111.11c-2.98-2.53-5.49-4.9-8.24-6.94-2.76-2.04-5.77-3.75-9.15-5.92V62.33c-2.82-.15-5.26-.27-7.39-.38,5.45-5.44,10.94-10.92,16.22-16.19,5.12,5.16,10.68,10.77,16.19,16.33h-7.24c-.14,1.97-.37,3.69-.38,5.41-.03,14.4-.02,28.8-.02,43.61Z"/>
      <path class="cls-1" d="M41.03,110.82v-29.7h-7.45c5.57-5.62,11.13-11.22,16.42-16.55,5.13,5.15,10.61,10.65,16.08,16.15-1.88,.09-4.27,.21-7.05,.35v16.52c-6.24,4.59-11.89,8.75-18,13.24Z"/>
      <path class="cls-1" d="M86.36,171.82c-.15,2.15-.3,4.21-.47,6.61h-5.94c-.16-1.95-.31-3.85-.48-6.03-3.89-1.59-8.58-.91-12.27-3.77,.67-2.5,1.32-4.93,1.96-7.32,3.08,.86,5.91,2,8.84,2.37,2.45,.31,5.17,.19,7.49-.58,3.84-1.27,4.36-5.19,1.16-7.72-1.61-1.27-3.64-2.04-5.54-2.91-2.31-1.07-4.78-1.84-7.01-3.05-4.29-2.32-6.67-5.82-6.43-10.96,.23-5.07,2.8-8.42,7.15-10.6,1.47-.74,3.04-1.25,4.92-2.01,.16-2.06,.34-4.24,.52-6.59h6.18c.15,1.99,.3,3.89,.46,5.97,3.37,.79,6.64,1.55,10.29,2.41-.63,2.82-1.14,5.1-1.62,7.21-4.16-.5-7.96-1.12-11.79-1.37-2.83-.18-4.91,1.16-5.61,4.09,.31,2.66,2.25,3.87,4.32,4.82,3,1.38,6.12,2.48,9.1,3.89,3.17,1.51,5.89,3.55,7.11,7.12,2.24,6.6-.42,13.13-6.8,16.23-1.73,.84-3.59,1.42-5.53,2.18Z"/>
    </g>
  </g>
</svg>